<mxfile host="app.diagrams.net" modified="2022-08-10T17:05:28.610Z" agent="5.0 (Windows NT 10.0; Win64; x64) AppleWebKit/537.36 (KHTML, like Gecko) Chrome/102.0.5005.148 YaBrowser/22.7.2.899 Yowser/2.5 Safari/537.36" etag="xnGXn61NrmV7ICX8jGdU" version="20.2.3" type="github">
  <diagram id="teWbYJ87AtuthEhuR5Y4" name="Страница 1">
    <mxGraphModel dx="1342" dy="585" grid="1" gridSize="10" guides="1" tooltips="1" connect="1" arrows="1" fold="1" page="1" pageScale="1" pageWidth="827" pageHeight="1169" math="0" shadow="0">
      <root>
        <mxCell id="0" />
        <mxCell id="1" parent="0" />
        <mxCell id="P4r_5BuKvrRrqmOLoVMr-5" value="" style="edgeStyle=orthogonalEdgeStyle;rounded=0;orthogonalLoop=1;jettySize=auto;html=1;" parent="1" source="P4r_5BuKvrRrqmOLoVMr-2" target="P4r_5BuKvrRrqmOLoVMr-4" edge="1">
          <mxGeometry relative="1" as="geometry" />
        </mxCell>
        <mxCell id="P4r_5BuKvrRrqmOLoVMr-2" value="START" style="rounded=1;whiteSpace=wrap;html=1;" parent="1" vertex="1">
          <mxGeometry x="330" y="50" width="110" height="60" as="geometry" />
        </mxCell>
        <mxCell id="P4r_5BuKvrRrqmOLoVMr-3" value="END" style="rounded=1;whiteSpace=wrap;html=1;" parent="1" vertex="1">
          <mxGeometry x="325" y="1080" width="120" height="60" as="geometry" />
        </mxCell>
        <mxCell id="P4r_5BuKvrRrqmOLoVMr-17" value="" style="edgeStyle=orthogonalEdgeStyle;rounded=0;orthogonalLoop=1;jettySize=auto;html=1;" parent="1" source="P4r_5BuKvrRrqmOLoVMr-4" target="P4r_5BuKvrRrqmOLoVMr-16" edge="1">
          <mxGeometry relative="1" as="geometry" />
        </mxCell>
        <mxCell id="P4r_5BuKvrRrqmOLoVMr-4" value="ВВОД n" style="shape=parallelogram;perimeter=parallelogramPerimeter;whiteSpace=wrap;html=1;fixedSize=1;" parent="1" vertex="1">
          <mxGeometry x="312.5" y="150" width="145" height="100" as="geometry" />
        </mxCell>
        <mxCell id="P4r_5BuKvrRrqmOLoVMr-15" style="edgeStyle=orthogonalEdgeStyle;rounded=0;orthogonalLoop=1;jettySize=auto;html=1;" parent="1" edge="1">
          <mxGeometry relative="1" as="geometry">
            <mxPoint x="390" y="560" as="targetPoint" />
            <mxPoint x="335" y="350" as="sourcePoint" />
            <Array as="points">
              <mxPoint x="220" y="350" />
              <mxPoint x="220" y="560" />
            </Array>
          </mxGeometry>
        </mxCell>
        <mxCell id="P4r_5BuKvrRrqmOLoVMr-12" style="edgeStyle=orthogonalEdgeStyle;rounded=0;orthogonalLoop=1;jettySize=auto;html=1;entryX=1;entryY=0.5;entryDx=0;entryDy=0;entryPerimeter=0;" parent="1" edge="1">
          <mxGeometry relative="1" as="geometry">
            <mxPoint x="385" y="550" as="sourcePoint" />
            <mxPoint x="435" y="350" as="targetPoint" />
            <Array as="points">
              <mxPoint x="385" y="530" />
              <mxPoint x="500" y="530" />
              <mxPoint x="500" y="350" />
            </Array>
          </mxGeometry>
        </mxCell>
        <mxCell id="P4r_5BuKvrRrqmOLoVMr-14" value="" style="edgeStyle=orthogonalEdgeStyle;rounded=0;orthogonalLoop=1;jettySize=auto;html=1;" parent="1" source="P4r_5BuKvrRrqmOLoVMr-10" target="P4r_5BuKvrRrqmOLoVMr-13" edge="1">
          <mxGeometry relative="1" as="geometry" />
        </mxCell>
        <mxCell id="P4r_5BuKvrRrqmOLoVMr-10" value="ВВОД strs[i]" style="shape=parallelogram;html=1;strokeWidth=2;perimeter=parallelogramPerimeter;whiteSpace=wrap;rounded=1;arcSize=12;size=0.23;" parent="1" vertex="1">
          <mxGeometry x="307.5" y="430" width="155" height="80" as="geometry" />
        </mxCell>
        <mxCell id="P4r_5BuKvrRrqmOLoVMr-21" value="" style="edgeStyle=orthogonalEdgeStyle;rounded=0;orthogonalLoop=1;jettySize=auto;html=1;" parent="1" source="P4r_5BuKvrRrqmOLoVMr-13" target="P4r_5BuKvrRrqmOLoVMr-20" edge="1">
          <mxGeometry relative="1" as="geometry" />
        </mxCell>
        <mxCell id="P4r_5BuKvrRrqmOLoVMr-13" value="ВЫВОД strs[i]" style="shape=parallelogram;html=1;strokeWidth=2;perimeter=parallelogramPerimeter;whiteSpace=wrap;rounded=1;arcSize=12;size=0.23;" parent="1" vertex="1">
          <mxGeometry x="312.5" y="585" width="145" height="80" as="geometry" />
        </mxCell>
        <mxCell id="P4r_5BuKvrRrqmOLoVMr-18" value="" style="edgeStyle=orthogonalEdgeStyle;rounded=0;orthogonalLoop=1;jettySize=auto;html=1;" parent="1" source="P4r_5BuKvrRrqmOLoVMr-16" target="P4r_5BuKvrRrqmOLoVMr-10" edge="1">
          <mxGeometry relative="1" as="geometry" />
        </mxCell>
        <mxCell id="P4r_5BuKvrRrqmOLoVMr-16" value="" style="verticalLabelPosition=bottom;verticalAlign=top;html=1;shape=hexagon;perimeter=hexagonPerimeter2;arcSize=6;size=0.15;" parent="1" vertex="1">
          <mxGeometry x="335" y="320" width="100" height="60" as="geometry" />
        </mxCell>
        <mxCell id="P4r_5BuKvrRrqmOLoVMr-19" value="i=1,n" style="text;html=1;strokeColor=none;fillColor=none;align=center;verticalAlign=middle;whiteSpace=wrap;rounded=0;" parent="1" vertex="1">
          <mxGeometry x="355" y="335" width="60" height="30" as="geometry" />
        </mxCell>
        <mxCell id="P4r_5BuKvrRrqmOLoVMr-23" value="" style="edgeStyle=orthogonalEdgeStyle;rounded=0;orthogonalLoop=1;jettySize=auto;html=1;" parent="1" source="P4r_5BuKvrRrqmOLoVMr-20" target="P4r_5BuKvrRrqmOLoVMr-22" edge="1">
          <mxGeometry relative="1" as="geometry" />
        </mxCell>
        <mxCell id="P4r_5BuKvrRrqmOLoVMr-26" style="edgeStyle=orthogonalEdgeStyle;rounded=0;orthogonalLoop=1;jettySize=auto;html=1;entryX=0.088;entryY=0.421;entryDx=0;entryDy=0;entryPerimeter=0;" parent="1" source="P4r_5BuKvrRrqmOLoVMr-20" target="P4r_5BuKvrRrqmOLoVMr-25" edge="1">
          <mxGeometry relative="1" as="geometry">
            <mxPoint x="331" y="950" as="targetPoint" />
            <Array as="points">
              <mxPoint x="250" y="770" />
              <mxPoint x="250" y="972" />
            </Array>
          </mxGeometry>
        </mxCell>
        <mxCell id="P4r_5BuKvrRrqmOLoVMr-20" value="x=&amp;gt;x.Length &amp;lt;4" style="rhombus;whiteSpace=wrap;html=1;" parent="1" vertex="1">
          <mxGeometry x="312.5" y="730" width="145" height="80" as="geometry" />
        </mxCell>
        <mxCell id="P4r_5BuKvrRrqmOLoVMr-24" style="edgeStyle=orthogonalEdgeStyle;rounded=0;orthogonalLoop=1;jettySize=auto;html=1;entryX=1;entryY=0.5;entryDx=0;entryDy=0;" parent="1" source="P4r_5BuKvrRrqmOLoVMr-22" target="P4r_5BuKvrRrqmOLoVMr-20" edge="1">
          <mxGeometry relative="1" as="geometry">
            <Array as="points">
              <mxPoint x="477" y="880" />
              <mxPoint x="477" y="770" />
            </Array>
          </mxGeometry>
        </mxCell>
        <mxCell id="P4r_5BuKvrRrqmOLoVMr-22" value="resultArr[i++]=strs[i]" style="rounded=0;whiteSpace=wrap;html=1;" parent="1" vertex="1">
          <mxGeometry x="325" y="850" width="120" height="60" as="geometry" />
        </mxCell>
        <mxCell id="P4r_5BuKvrRrqmOLoVMr-27" value="" style="edgeStyle=orthogonalEdgeStyle;rounded=0;orthogonalLoop=1;jettySize=auto;html=1;" parent="1" source="P4r_5BuKvrRrqmOLoVMr-25" target="P4r_5BuKvrRrqmOLoVMr-3" edge="1">
          <mxGeometry relative="1" as="geometry" />
        </mxCell>
        <mxCell id="P4r_5BuKvrRrqmOLoVMr-25" value="ВЫВОД resultArr[i]" style="shape=parallelogram;perimeter=parallelogramPerimeter;whiteSpace=wrap;html=1;fixedSize=1;" parent="1" vertex="1">
          <mxGeometry x="307.5" y="930" width="155" height="100" as="geometry" />
        </mxCell>
      </root>
    </mxGraphModel>
  </diagram>
</mxfile>
